<svg width="220" height="220" viewBox="0 0 220 220" fill="none" xmlns="http://www.w3.org/2000/svg">
<path fill-rule="evenodd" clip-rule="evenodd" d="M205.593 167.181C208.853 165.345 209.966 161.277 208.086 158.094C206.206 154.914 202.041 153.823 198.782 155.659L109.836 205.813L21.2172 155.845C17.9613 154.009 13.7962 155.097 11.9129 158.28C10.0329 161.463 11.15 165.531 14.4058 167.367L106.172 219.107C107.84 220.051 109.751 220.221 111.467 219.739C112.278 219.616 113.078 219.346 113.831 218.924L205.593 167.181Z" fill="white"/>
<path fill-rule="evenodd" clip-rule="evenodd" d="M214.739 114.135C215.207 111.327 213.887 108.402 211.207 106.899L114.197 52.4634C113.412 52.0239 112.577 51.7426 111.734 51.6125C109.919 51.0991 107.903 51.282 106.135 52.2736L9.12158 106.709C6.30094 108.293 4.98755 111.455 5.68347 114.394C5.3779 116.815 6.32802 119.348 9.15481 120.942L106.165 175.641C107.933 176.636 109.953 176.819 111.767 176.306C112.624 176.179 113.467 175.894 114.262 175.448L211.276 120.745C214.127 119.137 215.069 116.575 214.739 114.135ZM194.713 113.844L109.995 66.3069L25.3252 113.819L110.043 161.586L194.713 113.844Z" fill="white"/>
<path fill-rule="evenodd" clip-rule="evenodd" d="M216.215 72.9418C219.835 70.9028 221.075 66.3852 218.984 62.8502C216.896 59.3189 212.27 58.1074 208.651 60.1464L109.869 115.846L11.4549 60.3532C7.83529 58.3105 3.20959 59.5221 1.12178 63.0571C-0.969812 66.5884 0.27077 71.1096 3.8904 73.1486L105.8 130.61C107.657 131.655 109.775 131.847 111.685 131.308C112.581 131.175 113.47 130.876 114.306 130.407L216.215 72.9418Z" fill="white"/>
<path d="M18.9062 66.5462L109.681 11.1387L200.455 66.5425L109.681 118.26L18.9062 66.5462Z" fill="white"/>
<path fill-rule="evenodd" clip-rule="evenodd" d="M216.095 58.3707C219.722 60.406 220.978 64.9199 218.902 68.4549C216.821 71.9862 212.196 73.2014 208.569 71.1661L109.772 15.7291L11.335 70.9667C7.70777 73.002 3.08206 71.7867 1.00182 68.2554C-1.07465 64.7204 0.181065 60.2065 3.80447 58.1712L105.718 0.987016C107.575 -0.0546452 109.693 -0.246724 111.599 0.292575C112.484 0.429247 113.361 0.724753 114.186 1.18648L216.095 58.3707Z" fill="white"/>
</svg>
