<svg width="220" height="220" viewBox="0 0 220 220" fill="none" xmlns="http://www.w3.org/2000/svg">
<path fill-rule="evenodd" clip-rule="evenodd" d="M205.593 165.181C208.853 163.345 209.966 159.277 208.086 156.094C206.206 152.914 202.041 151.823 198.782 153.659L109.836 203.813L21.2172 153.845C17.9613 152.009 13.7962 153.097 11.9129 156.28C10.0329 159.463 11.15 163.531 14.4058 165.367L106.172 217.107C107.84 218.051 109.751 218.221 111.467 217.739C112.278 217.616 113.078 217.346 113.831 216.924L205.593 165.181Z" fill="#101214"/>
<path fill-rule="evenodd" clip-rule="evenodd" d="M214.794 113.73C215.077 111.05 213.758 108.33 211.207 106.899L114.197 52.4634C113.412 52.0239 112.577 51.7426 111.734 51.6125C109.919 51.0991 107.903 51.282 106.135 52.2736L9.12158 106.709C6.37984 108.249 5.0622 111.28 5.62978 114.147C5.59469 116.328 6.62058 118.512 9.15494 119.941L106.165 174.64C107.933 175.635 109.953 175.818 111.767 175.305C112.624 175.178 113.467 174.893 114.262 174.447L211.276 119.744C213.896 118.267 214.904 115.984 214.794 113.73ZM193.823 113.345L109.995 66.3069L26.2149 113.32L110.043 160.586L193.823 113.345Z" fill="#101214"/>
<path fill-rule="evenodd" clip-rule="evenodd" d="M216.215 72.9418C219.835 70.9028 221.075 66.3852 218.984 62.8502C216.896 59.3189 212.27 58.1074 208.651 60.1464L109.869 115.846L11.4549 60.3532C7.83529 58.3105 3.20959 59.5221 1.12178 63.0571C-0.969812 66.5884 0.27077 71.1096 3.8904 73.1486L105.8 130.61C107.657 131.655 109.775 131.847 111.685 131.308C112.581 131.175 113.47 130.876 114.306 130.407L216.215 72.9418Z" fill="#101214"/>
<path d="M18.9062 66.5462L109.681 11.1387L200.455 66.5425L109.681 118.26L18.9062 66.5462Z" fill="#101214"/>
<path fill-rule="evenodd" clip-rule="evenodd" d="M216.095 58.3707C219.722 60.406 220.978 64.9199 218.902 68.4549C216.821 71.9862 212.196 73.2014 208.569 71.1661L109.772 15.7291L11.335 70.9667C7.70777 73.002 3.08206 71.7867 1.00182 68.2554C-1.07465 64.7204 0.181065 60.2065 3.80447 58.1712L105.718 0.987016C107.575 -0.0546452 109.693 -0.246724 111.599 0.292575C112.484 0.429247 113.361 0.724753 114.186 1.18648L216.095 58.3707Z" fill="#101214"/>
</svg>
